<?xml version="1.0" encoding="iso-8859-1"?>
<!-- Generator: Adobe Illustrator 16.0.0, SVG Export Plug-In . SVG Version: 6.00 Build 0)  -->
<!DOCTYPE svg PUBLIC "-//W3C//DTD SVG 1.1//EN" "http://www.w3.org/Graphics/SVG/1.1/DTD/svg11.dtd">
<svg version="1.1" id="Layer_1" xmlns="http://www.w3.org/2000/svg" xmlns:xlink="http://www.w3.org/1999/xlink" x="0px" y="0px"
	 width="20px" height="20px" viewBox="0 0 20 20" style="enable-background:new 0 0 20 20;" xml:space="preserve">
<g>
	<path style="fill:#FFFFFF;" d="M18.025,0H1.971C0.883,0,0,0.885,0,1.972v4.265h1.648V1.972c0-0.179,0.145-0.323,0.322-0.323h16.055
		c0.18,0,0.324,0.145,0.324,0.323v16.057c0,0.178-0.145,0.322-0.324,0.322H1.971c-0.178,0-0.322-0.145-0.322-0.322v-4.265H0v4.265
		C0,19.115,0.883,20,1.971,20h16.055C19.114,20,20,19.115,20,18.028V1.972C20,0.885,19.114,0,18.025,0z"/>
	<polygon style="fill:#FFFFFF;" points="11.434,10.817 8.266,14.116 9.426,15.278 14.704,10 9.426,4.722 8.266,5.882 11.434,9.164 
		0,9.176 0,10.824 	"/>
</g>
</svg>
